{"title":"Katy B - Still [Music Video] 1080p [Sbyky]","uid":11115842,"size":86930791,"categoryP":"video","categoryS":"music_videos","magnet":"?xt=urn:btih:3986b2f7054cb995dd2fcfadfa9eeed2192bccfe&amp;dn=Katy+B+-+Still+%5BMusic+Video%5D+1080p+%5BSbyky%5D&amp;tr=udp%3A%2F%2Ftracker.openbittorrent.com%3A80&amp;tr=udp%3A%2F%2Fopen.demonii.com%3A1337&amp;tr=udp%3A%2F%2Ftracker.coppersurfer.tk%3A6969&amp;tr=udp%3A%2F%2Fexodus.desync.com%3A6969","seeders":1,"leechers":1,"uploader":"Sbyky","files":1,"time":1411855323,"description":"General\nComplete name                            : Katy B - Still [Music Video] 1080p [Sbyky].MP4\nFormat                                   : MPEG-4\nFormat profile                           : Base Media\nCodec ID                                 : isom\nFile size                                : 82.9 MiB\nDuration                                 : 3mn 28s\nOverall bit rate mode                    : Variable\nOverall bit rate                         : 3 334 Kbps\nEncoded date                             : UTC 2014-03-25 09:59:04\nTagged date                              : UTC 2014-03-25 09:59:04\n\nVideo\nID                                       : 1\nFormat                                   : AVC\nFormat/Info                              : Advanced Video Codec\nFormat profile                           : &lt;a class=&quot;__cf_email__&quot; href=&quot;/cdn-cgi/l/email-protection&quot; data-cfemail=&quot;652d0c020d2529514b55&quot;&gt;[email&amp;#160;protected]&lt;/a&gt;&lt;script data-cfhash='f9e31' type=&quot;text/javascript&quot;&gt;\n/* &lt;![CDATA[ */!function(){try{var t=&quot;currentScript&quot;in document?document.currentScript:function(){for(var t=document.getElementsByTagName(&quot;script&quot;),e=t.length;e--;)if(t[e].getAttribute(&quot;data-cfhash&quot;))return t[e]}();if(t&amp;&amp;t.previousSibling){var e,r,n,i,c=t.previousSibling,a=c.getAttribute(&quot;data-cfemail&quot;);if(a){for(e=&quot;&quot;,r=parseInt(a.substr(0,2),16),n=2;a.length-n;n+=2)i=parseInt(a.substr(n,2),16)^r,e+=String.fromCharCode(i);e=document.createTextNode(e),c.parentNode.replaceChild(e,c)}t.parentNode.removeChild(t);}}catch(u){}}()/* ]]&gt; */&lt;/script&gt;\nFormat settings, CABAC                   : Yes\nFormat settings, ReFrames                : 2 frames\nCodec ID                                 : avc1\nCodec ID/Info                            : Advanced Video Coding\nDuration                                 : 3mn 28s\nBit rate                                 : 3 206 Kbps\nWidth                                    : 1 920 pixels\nHeight                                   : 1 080 pixels\nDisplay aspect ratio                     : 16:9\nFrame rate mode                          : Constant\nFrame rate                               : 25.000 fps\nColor space                              : YUV\nChroma subsampling                       : 4:2:0\nBit depth                                : 8 bits\nScan type                                : Progressive\nBits/(Pixel*Frame)                       : 0.062\nStream size                              : 79.7 MiB (96%)\nEncoded date                             : UTC 2014-03-25 09:59:04\nTagged date                              : UTC 2014-03-25 09:59:04\n\nAudio\nID                                       : 2\nFormat                                   : AAC\nFormat/Info                              : Advanced Audio Codec\nFormat profile                           : LC\nCodec ID                                 : 40\nDuration                                 : 3mn 28s\nBit rate mode                            : Variable\nBit rate                                 : 126 Kbps\nChannel(s)                               : 2 channels\nChannel positions                        : Front: L R\nSampling rate                            : 44.1 KHz\nCompression mode                         : Lossy\nStream size                              : 3.12 MiB (4%)\nEncoded date                             : UTC 2014-03-25 09:58:53\nTagged date                              : UTC 2014-03-25 09:58:53\n\nShared By Sbyky\n","torrent":{"xt":"urn:btih:3986b2f7054cb995dd2fcfadfa9eeed2192bccfe","amp;dn":"Katy+B+-+Still+%5BMusic+Video%5D+1080p+%5BSbyky%5D","amp;tr":["udp%3A%2F%2Ftracker.openbittorrent.com%3A80","udp%3A%2F%2Fopen.demonii.com%3A1337","udp%3A%2F%2Ftracker.coppersurfer.tk%3A6969","udp%3A%2F%2Fexodus.desync.com%3A6969"],"infoHash":"3986b2f7054cb995dd2fcfadfa9eeed2192bccfe","infoHashBuffer":{"type":"Buffer","data":[57,134,178,247,5,76,185,149,221,47,207,173,250,158,238,210,25,43,204,254]},"announce":[],"urlList":[]}}